<svg width="383" height="144" viewBox="0 0 383 144" fill="none" xmlns="http://www.w3.org/2000/svg">
<path d="M93 72C93 76.8857 91.45 81.2571 88.6083 84.8571C91.45 88.4571 93 92.8286 93 97.7143C93 109.286 83.9583 118.286 72.3333 118.286C70.2667 118.286 68.2 118.029 66.3917 117.514C66.9083 119.314 67.1667 121.371 67.1667 123.429C67.1667 135 58.125 144 46.5 144C41.5917 144 37.2 142.457 33.5833 139.629C29.9667 142.457 25.575 144 20.6667 144C9.04167 144 0 135 0 123.429C0 118.543 1.55 114.171 4.39167 110.571C1.55 106.971 0 102.6 0 97.7143C0 92.8286 1.55 88.4571 4.39167 84.8571C1.55 81.2571 0 76.8857 0 72C0 67.1143 1.55 62.7429 4.39167 59.1429C1.55 55.5429 0 51.1714 0 46.2857C0 41.4 1.55 37.0286 4.39167 33.4286C1.55 29.8286 0 25.4571 0 20.5714C0 9 9.04167 0 20.6667 0C32.2917 0 41.3333 9 41.3333 20.5714C41.3333 22.6286 41.075 24.6857 40.5583 26.4857C42.3667 25.9714 44.4333 25.7143 46.5 25.7143C58.125 25.7143 67.1667 34.7143 67.1667 46.2857C67.1667 48.3429 66.9083 50.4 66.3917 52.2C68.2 51.6857 70.2667 51.4286 72.3333 51.4286C83.9583 51.4286 93 60.4286 93 72ZM40.5583 103.629C42.3667 103.114 44.4333 102.857 46.5 102.857C48.5667 102.857 50.6333 103.114 52.4417 103.629C51.925 101.829 51.6667 99.7714 51.6667 97.7143C51.6667 92.8286 53.2167 88.4571 56.0583 84.8571C53.2167 81.2571 51.6667 76.8857 51.6667 72C51.6667 69.9429 51.925 67.8857 52.4417 66.0857C50.6333 66.6 48.5667 66.8571 46.5 66.8571C44.4333 66.8571 42.3667 66.6 40.5583 66.0857C41.075 67.8857 41.3333 69.9429 41.3333 72C41.3333 76.8857 39.7833 81.2571 36.9417 84.8571C39.7833 88.4571 41.3333 92.8286 41.3333 97.7143C41.3333 99.7714 41.075 101.829 40.5583 103.629Z" fill="white"/>
<path d="M133 48H181.5L133 0H230V48H181.5L230 96H181.5V144L133 96V48Z" fill="white"/>
<path d="M357.889 31.3043C372.014 31.3043 383 42.2609 383 56.3478C383 70.4348 372.014 81.3913 357.889 81.3913C355.378 81.3913 352.867 81.0783 350.669 80.4522C351.297 82.6435 351.611 85.1478 351.611 87.6522C351.611 101.739 340.625 112.696 326.5 112.696C323.989 112.696 321.478 112.383 319.281 111.757C319.908 113.948 320.222 116.452 320.222 118.957C320.222 133.043 309.236 144 295.111 144C280.986 144 270 133.043 270 118.957C270 113.009 271.883 107.687 275.336 103.304C271.883 98.9217 270 93.6 270 87.6522C270 81.7043 271.883 76.3826 275.336 72C271.883 67.6174 270 62.2956 270 56.3478C270 50.4 271.883 45.0783 275.336 40.6956C271.883 36.313 270 30.9913 270 25.0435C270 10.9565 280.986 0 295.111 0C301.075 0 306.411 1.87826 310.806 5.32174C315.2 1.87826 320.536 0 326.5 0C340.625 0 351.611 10.9565 351.611 25.0435C351.611 27.5478 351.297 30.0522 350.669 32.2435C352.867 31.6174 355.378 31.3043 357.889 31.3043ZM319.281 63.5478C321.478 62.9217 323.989 62.6087 326.5 62.6087C329.011 62.6087 331.522 62.9217 333.719 63.5478C333.092 61.3565 332.778 58.8522 332.778 56.3478C332.778 53.8435 333.092 51.3391 333.719 49.1478C331.522 49.7739 329.011 50.087 326.5 50.087C323.989 50.087 321.478 49.7739 319.281 49.1478C319.908 51.3391 320.222 53.8435 320.222 56.3478C320.222 58.8522 319.908 61.3565 319.281 63.5478Z" fill="white"/>
</svg>
